# xmcd CD database file
#
# Track frame offsets:
#	150
#	21219
#	50332
#	74995
#	99671
#	138751
#	160336
#	188614
#	212773
#	242770
#	268155
#	299906
#	323432
#
# Disc length: 4789 seconds
#
# Revision: 1
# Processed by: cddbd v1.5.2PL0 Copyright (c) Steve Scherf et al.
# Submitted via: CDex 1.51
#
DISCID=c812b30d
DTITLE=Various Artist - MOS Underground Miami 2008 [CD3)
DYEAR=2008
DGENRE=New Age
TTITLE0=Cobblestone Jazz - India in me
TTITLE1=Marc Houle - Porch
TTITLE2=Sebo K - Far out
TTITLE3=Lucio Aquilina - Magic M
TTITLE4=Sasha - Who killed Sparky?
TTITLE5=Butch /. On the line (Oxia remix)
TTITLE6=Steve Bug - A world without
TTITLE7=Richard Murray and Paul Deighton - S P A C E
TTITLE8=Workidz - Washmachine
TTITLE9=Santiago and Bushido - Headtrick
TTITLE10=Ortin Cam - Panic at the disco
TTITLE11=Plastikman - Spastik (Dubfire rework)
TTITLE12=Zoo Brazil - Technik
EXTD=YEAR: 2008
EXTT0=
EXTT1=
EXTT2=
EXTT3=
EXTT4=
EXTT5=
EXTT6=
EXTT7=
EXTT8=
EXTT9=
EXTT10=
EXTT11=
EXTT12=
PLAYORDER=
